#tb 0: 1/25
0,          0,          0,        1,    23040, 0x6977dbca
0,          1,          1,        1,    23040, 0xd9bfcb5c
0,          2,          2,        1,    23040, 0xbdd5a346
0,          3,          3,        1,    23040, 0x021877cd
0,          4,          4,        1,    23040, 0xb8a45933
0,          5,          5,        1,    23040, 0xc289338e
0,          6,          6,        1,    23040, 0x6968e57d
0,          7,          7,        1,    23040, 0x1142c50c
0,          8,          8,        1,    23040, 0xcf86c357
0,          9,          9,        1,    23040, 0xf73de7ec
0,         10,         10,        1,    23040, 0x2103ed06
0,         11,         11,        1,    23040, 0xf0ecc0e2
0,         12,         12,        1,    23040, 0xa7b1971f
0,         13,         13,        1,    23040, 0x4454871a
0,         14,         14,        1,    23040, 0xc5088346
0,         15,         15,        1,    23040, 0x89189469
0,         16,         16,        1,    23040, 0x320d977a
0,         17,         17,        1,    23040, 0xbdc0a95b
0,         18,         18,        1,    23040, 0xbcfec5c9
0,         19,         19,        1,    23040, 0xb68ceb37
0,         20,         20,        1,    23040, 0x41a60b0c
0,         21,         21,        1,    23040, 0x0e662b47
0,         22,         22,        1,    23040, 0x0e2440b7
0,         23,         23,        1,    23040, 0x77415a77
0,         24,         24,        1,    23040, 0x62936fdf
0,         25,         25,        1,    23040, 0xaa987f9d
0,         26,         26,        1,    23040, 0xaf0c8764
0,         27,         27,        1,    23040, 0x645c913e
0,         28,         28,        1,    23040, 0x2f249b06
0,         29,         29,        1,    23040, 0xb54fb546
0,         30,         30,        1,    23040, 0xc669c247
0,         31,         31,        1,    23040, 0xe308bb8f
0,         32,         32,        1,    23040, 0xb920b69d
0,         33,         33,        1,    23040, 0x86d5c0ff
0,         34,         34,        1,    23040, 0x7d5ec3e4
0,         35,         35,        1,    23040, 0x5ca1cdb0
0,         36,         36,        1,    23040, 0xdc11cf9e
0,         37,         37,        1,    23040, 0x1a7fd0d5
0,         38,         38,        1,    23040, 0x9884d5cd
0,         39,         39,        1,    23040, 0xcafbd5fb
0,         40,         40,        1,    23040, 0xc670ceb7
0,         41,         41,        1,    23040, 0x63cecef7
0,         42,         42,        1,    23040, 0xfe29c28c
0,         43,         43,        1,    23040, 0x368dc66e
0,         44,         44,        1,    23040, 0x2ec7c4de
0,         45,         45,        1,    23040, 0x8954c9d6
0,         46,         46,        1,    23040, 0xff89ca68
0,         47,         47,        1,    23040, 0x5ae0b290
